<svg width="13" height="13" viewBox="0 0 13 13" fill="none" xmlns="http://www.w3.org/2000/svg">
<path d="M12.25 1.9375V11.5625C12.25 11.9271 12.1224 12.237 11.8672 12.4922C11.612 12.7474 11.3021 12.875 10.9375 12.875H8.61328V8.03516H10.2539L10.5 6.17578H8.61328V5C8.61328 4.79948 8.63151 4.64453 8.66797 4.53516C8.70443 4.40755 8.79557 4.30729 8.94141 4.23438C9.08724 4.14323 9.27865 4.09766 9.51562 4.09766H10.5V2.45703C10.1172 2.40234 9.64323 2.375 9.07812 2.375C8.34896 2.375 7.76562 2.59375 7.32812 3.03125C6.90885 3.45052 6.69922 4.04297 6.69922 4.80859V6.17578H5.03125V8.03516H6.69922V12.875H1.3125C0.947917 12.875 0.638021 12.7474 0.382812 12.4922C0.127604 12.237 0 11.9271 0 11.5625V1.9375C0 1.57292 0.127604 1.26302 0.382812 1.00781C0.638021 0.752604 0.947917 0.625 1.3125 0.625H10.9375C11.3021 0.625 11.612 0.752604 11.8672 1.00781C12.1224 1.26302 12.25 1.57292 12.25 1.9375Z" fill="white"/>
</svg>
