<svg width="14" height="15" viewBox="0 0 14 15" fill="none" xmlns="http://www.w3.org/2000/svg">
<path d="M1.96875 2.96484C3.29948 1.63411 4.90365 0.96875 6.78125 0.96875C8.65885 0.96875 10.2539 1.63411 11.5664 2.96484C12.8971 4.27734 13.5625 5.8724 13.5625 7.75C13.5625 9.6276 12.8971 11.2318 11.5664 12.5625C10.2539 13.875 8.65885 14.5312 6.78125 14.5312C4.90365 14.5312 3.29948 13.875 1.96875 12.5625C0.65625 11.2318 0 9.6276 0 7.75C0 5.8724 0.65625 4.27734 1.96875 2.96484ZM10.1172 5.61719C10.1536 5.39844 10.1172 5.24349 10.0078 5.15234C9.91667 5.04297 9.79818 5.01562 9.65234 5.07031L3.11719 7.61328C2.88021 7.6862 2.7526 7.77734 2.73438 7.88672C2.73438 7.99609 2.83464 8.07812 3.03516 8.13281L4.70312 8.65234L8.58594 6.21875C8.69531 6.14583 8.77734 6.13672 8.83203 6.19141C8.85026 6.20964 8.84115 6.23698 8.80469 6.27344L5.66016 9.11719L5.52344 10.8398C5.65104 10.8398 5.76953 10.7852 5.87891 10.6758L6.69922 9.88281L8.39453 11.1406C8.72266 11.3229 8.92318 11.2318 8.99609 10.8672L10.1172 5.61719Z" fill="white"/>
</svg>
